<svg xmlns="http://www.w3.org/2000/svg" viewBox="0 -0.5 16 16" shape-rendering="crispEdges">
<metadata>Made with Pixels to Svg https://codepen.io/shshaw/pen/XbxvNj</metadata>
<path stroke="#000002" d="M2 2h1M5 3h1M14 3h1M11 7h1M11 11h1" />
<path stroke="#010000" d="M3 2h1M6 3h1M3 4h1M1 6h1M2 7h1M2 9h1M13 9h1M12 12h1M3 13h1M2 14h1" />
<path stroke="#000000" d="M4 2h1M7 2h1M9 2h2M4 3h1M7 3h4M13 3h1M1 4h2M6 4h1M8 4h1M10 4h2M14 4h1M3 5h1M5 5h1M7 5h1M9 5h1M11 5h1M14 5h1M3 6h2M6 6h1M8 6h3M13 6h2M1 7h1M5 7h1M8 7h2M12 7h2M4 8h1M6 8h3M10 8h5M5 9h3M12 9h1M14 9h1M1 10h1M3 10h2M8 10h1M10 10h1M13 10h2M2 11h3M7 11h4M12 11h1M1 12h4M7 12h1M9 12h1M6 13h1M8 13h4M13 13h1M5 14h7M13 14h1" />
<path stroke="#000001" d="M5 2h1M8 2h1M12 2h1M1 3h1M2 6h1M10 7h1M3 8h1M9 8h1M2 10h1M13 11h1M13 12h1M7 13h1" />
<path stroke="#000200" d="M6 2h1M4 4h2M13 4h1M10 5h1M13 5h1M11 6h1M4 7h1M1 8h1M5 12h1M1 13h1M5 13h1" />
<path stroke="#000102" d="M11 2h1" />
<path stroke="#000300" d="M13 2h1M7 10h1" />
<path stroke="#020200" d="M2 3h1M3 7h1" />
<path stroke="#020100" d="M3 3h1" />
<path stroke="#000100" d="M11 3h1M6 5h1M7 7h1M2 8h1M3 9h1M6 10h1M14 11h1M6 12h1M10 12h1M14 12h1M2 13h1M12 13h1M14 13h1" />
<path stroke="#000202" d="M12 3h1" />
<path stroke="#010001" d="M7 4h1" />
<path stroke="#030000" d="M9 4h1" />
<path stroke="#000101" d="M12 4h1" />
<path stroke="#010002" d="M1 5h1" />
<path stroke="#020001" d="M2 5h1M11 10h1M5 11h1" />
<path stroke="#ffffff" d="M4 5h1M5 6h1M6 7h1M9 9h3" />
<path stroke="#010200" d="M8 5h1M6 11h1" />
<path stroke="#020000" d="M12 5h1M12 6h1M14 7h1M1 9h1M5 10h1M9 10h1M12 10h1M1 11h1M8 12h1M11 12h1M4 13h1M4 14h1" />
<path stroke="#010100" d="M7 6h1M3 14h1" />
<path stroke="#fefcff" d="M5 8h1" />
<path stroke="#fffdff" d="M4 9h1" />
<path stroke="#fdffff" d="M8 9h1" />
<path stroke="#030202" d="M12 14h1" />
</svg>